<mxfile host="app.diagrams.net" modified="2022-06-02T14:20:38.957Z" agent="5.0 (Windows NT 10.0; WOW64) AppleWebKit/537.36 (KHTML, like Gecko) Chrome/100.0.4896.143 YaBrowser/22.5.0.1816 Yowser/2.5 Safari/537.36" etag="Ish-D60u07sdCtmeL-GX" version="18.2.0" type="github">
  <diagram id="GwwkPypv9oJo8DvXTh1N" name="Page-1">
    <mxGraphModel dx="868" dy="477" grid="1" gridSize="10" guides="1" tooltips="1" connect="1" arrows="1" fold="1" page="1" pageScale="1" pageWidth="827" pageHeight="1169" math="0" shadow="0">
      <root>
        <mxCell id="0" />
        <mxCell id="1" parent="0" />
        <mxCell id="wlpXhkUfP4olv9oXEfLN-3" value="&lt;div style=&quot;text-align: center;&quot;&gt;&lt;span style=&quot;background-color: initial;&quot;&gt;&lt;font style=&quot;font-size: 24px;&quot;&gt;&amp;nbsp; &amp;nbsp;&lt;b style=&quot;&quot;&gt;father:&lt;/b&gt;&lt;/font&gt;&lt;/span&gt;&lt;/div&gt;&lt;div style=&quot;&quot;&gt;&lt;span style=&quot;background-color: initial;&quot;&gt;&lt;font size=&quot;3&quot;&gt;&lt;br&gt;&lt;/font&gt;&lt;/span&gt;&lt;/div&gt;&lt;div style=&quot;&quot;&gt;&lt;span style=&quot;background-color: initial;&quot;&gt;&lt;font size=&quot;3&quot;&gt;&amp;nbsp;id serial&lt;/font&gt;&lt;/span&gt;&lt;/div&gt;&lt;div style=&quot;&quot;&gt;&lt;span style=&quot;background-color: initial;&quot;&gt;&lt;font size=&quot;3&quot;&gt;&lt;br&gt;&lt;/font&gt;&lt;/span&gt;&lt;/div&gt;&lt;div style=&quot;&quot;&gt;&lt;span style=&quot;background-color: initial;&quot;&gt;&lt;font size=&quot;3&quot;&gt;&amp;nbsp;name: varchar(255)&lt;/font&gt;&lt;/span&gt;&lt;/div&gt;" style="rounded=0;whiteSpace=wrap;html=1;align=left;" parent="1" vertex="1">
          <mxGeometry x="120" y="210" width="180" height="150" as="geometry" />
        </mxCell>
        <mxCell id="wlpXhkUfP4olv9oXEfLN-7" value="&lt;div style=&quot;text-align: center;&quot;&gt;&lt;font style=&quot;font-size: 24px;&quot;&gt;&lt;b style=&quot;background-color: initial;&quot;&gt;son:&lt;/b&gt;&lt;/font&gt;&lt;/div&gt;&lt;font style=&quot;font-size: 18px;&quot;&gt;&lt;br&gt;&lt;br&gt;&amp;nbsp;id: serial&lt;br&gt;&lt;br&gt;&amp;nbsp;name: varchar(255);&lt;br&gt;&lt;br&gt;&amp;nbsp;father_id: int&lt;/font&gt;" style="rounded=0;whiteSpace=wrap;html=1;align=left;" parent="1" vertex="1">
          <mxGeometry x="470" y="180" width="180" height="220" as="geometry" />
        </mxCell>
        <mxCell id="plhnmhnb_Tc7L_MUaPgg-1" value="" style="endArrow=classic;html=1;rounded=0;fontSize=18;entryX=1;entryY=0.5;entryDx=0;entryDy=0;exitX=0;exitY=0.782;exitDx=0;exitDy=0;exitPerimeter=0;" parent="1" target="wlpXhkUfP4olv9oXEfLN-3" edge="1" source="wlpXhkUfP4olv9oXEfLN-7">
          <mxGeometry width="50" height="50" relative="1" as="geometry">
            <mxPoint x="470" y="230" as="sourcePoint" />
            <mxPoint x="440" y="180" as="targetPoint" />
          </mxGeometry>
        </mxCell>
        <mxCell id="ZtufKX9YES1m1Jqa9ujC-1" value="" style="endArrow=none;html=1;rounded=0;exitX=0;exitY=0.409;exitDx=0;exitDy=0;exitPerimeter=0;entryX=1;entryY=0.418;entryDx=0;entryDy=0;entryPerimeter=0;" edge="1" parent="1" source="wlpXhkUfP4olv9oXEfLN-3" target="wlpXhkUfP4olv9oXEfLN-3">
          <mxGeometry width="50" height="50" relative="1" as="geometry">
            <mxPoint x="390" y="270" as="sourcePoint" />
            <mxPoint x="110" y="380" as="targetPoint" />
          </mxGeometry>
        </mxCell>
        <mxCell id="ZtufKX9YES1m1Jqa9ujC-2" value="" style="endArrow=none;html=1;rounded=0;exitX=0;exitY=0.332;exitDx=0;exitDy=0;exitPerimeter=0;" edge="1" parent="1" source="wlpXhkUfP4olv9oXEfLN-7">
          <mxGeometry width="50" height="50" relative="1" as="geometry">
            <mxPoint x="390" y="270" as="sourcePoint" />
            <mxPoint x="650" y="253" as="targetPoint" />
            <Array as="points" />
          </mxGeometry>
        </mxCell>
        <mxCell id="ZtufKX9YES1m1Jqa9ujC-3" value="&lt;b&gt;many-to-one&lt;/b&gt;" style="rounded=0;whiteSpace=wrap;html=1;fontSize=24;strokeWidth=0;" vertex="1" parent="1">
          <mxGeometry x="280" y="100" width="190" height="60" as="geometry" />
        </mxCell>
      </root>
    </mxGraphModel>
  </diagram>
</mxfile>
